<svg preserveAspectRatio="none" width="100%" height="100%" overflow="visible" style="display: block;" viewBox="0 0 126 48" fill="none" xmlns="http://www.w3.org/2000/svg">
<path id="Vector" fill-rule="evenodd" clip-rule="evenodd" d="M39.7065 48C38.6553 42.8094 38.7509 43.2375 37.6519 37.9933C35.5017 27.8796 34.3072 27.1839 34.3549 38.1538C34.3549 43.4515 34.355 42.5953 34.4027 48H30.2935C30.4369 31.4114 30.4369 15.5184 30.2935 0H34.4027C34.355 5.35117 34.3549 4.54849 34.3549 9.84615C34.3072 20.8161 35.3106 20.1204 37.5563 10.0067C38.7031 4.76254 38.6075 5.24415 39.7065 0H44.3891C37.2219 27.612 38.3208 21.0301 44.628 48H39.7065ZM50.314 0C50.2184 16 50.2184 32 50.314 48H46.2048C46.3003 31.893 46.3003 15.893 46.2048 0H50.314ZM52.1775 0C53.5631 15.9465 54.8055 32 55.9522 48H61.3993C62.2116 36.1739 62.9761 24.2408 63.6928 12.2007C64.4096 24.2408 65.1741 36.1739 65.9864 48H71.4335C72.5802 31.9465 73.7748 15.9465 75.2082 0H70.7167C68.4232 40.0268 68.6621 40.4548 66.5119 0H60.9215C58.7713 40.4548 59.0102 40.0268 56.7167 0H52.1775ZM93.9386 23.9732C93.9386 33.0167 94.6075 41.3645 95.5631 48H107.747C108.703 41.3645 109.372 33.0167 109.372 23.9732C109.372 14.9298 108.703 6.58194 107.747 0H95.5631C94.6075 6.63545 93.9386 14.9298 93.9386 23.9732ZM105.311 23.9732C105.311 35.9599 103.256 45.0033 101.679 45.0033C100.055 45.0033 98.0478 35.9599 98.0478 23.9732C98.0478 11.9866 100.102 2.94314 101.679 2.94314C103.256 2.94314 105.311 11.9866 105.311 23.9732ZM76.4505 23.9732C76.4505 33.0167 77.1195 41.3645 78.0751 48H90.2116C91.1672 41.3645 91.8362 33.0167 91.8362 23.9732C91.8362 14.9298 91.1672 6.58194 90.2116 0H78.0273C77.1195 6.63545 76.4505 14.9298 76.4505 23.9732ZM87.7747 23.9732C87.7747 35.9599 85.7201 45.0033 84.1434 45.0033C82.5188 45.0033 80.512 35.9599 80.512 23.9732C80.512 11.9866 82.5666 2.94314 84.1434 2.94314C85.7679 2.94314 87.7747 11.9866 87.7747 23.9732ZM121.891 23.9732C121.891 28.2542 120.744 41.8997 117.399 44.6823C116.635 45.3244 115.775 45.1104 115.775 43.291V23.9732V4.65552C115.775 2.83612 116.587 2.62207 117.399 3.26421C120.792 6.04682 121.891 19.7458 121.891 23.9732ZM111.857 23.9732V48H122.799C124.853 41.204 126 32.6421 126 23.9732C126 15.3043 124.853 6.74247 122.799 0H111.857V23.9732ZM18.1092 37.1906C17.7747 40.7759 17.4403 44.3612 17.1058 48H12.901C14.5734 32.0535 16.2935 16.0535 18.0614 0H23.7952C25.372 16.0535 26.901 32.0535 28.43 48H24.1297C23.843 44.3612 23.5563 40.7759 23.2696 37.1906H18.1092ZM19.5427 21.0301C19.1126 25.311 18.8259 29.7525 18.6826 30.8763H22.744C22.6485 29.7525 22.3618 25.3645 22.0273 21.0301C20.8805 7.86622 20.785 7.86622 19.5427 21.0301ZM4.39591 0C4.39591 4.49498 4.73037 9.89966 5.4471 14.5017C6.64164 22.3679 7.88396 22.3679 9.0785 14.5017C9.79522 9.89966 10.1297 4.49498 10.1297 0H14.5256C14.4778 14.3946 10.8464 20.7625 9.79522 31.3579C9.22184 37.0836 9.41297 42.2742 9.41297 48H5.11263C5.11263 42.2742 5.30375 37.0836 4.73037 31.3579C3.6314 20.709 0.0477816 14.3946 0 0H4.39591Z" fill="var(--fill-0, #161616)"/>
</svg>
