<svg preserveAspectRatio="none" width="100%" height="100%" overflow="visible" style="display: block;" viewBox="0 0 36 22" fill="none" xmlns="http://www.w3.org/2000/svg">
<g id="Mastercard_2019_logo 1" clip-path="url(#clip0_3313_12604)">
<path id="Vector" d="M10.8928 0C7.99754 0.00936978 5.22433 1.16728 3.18205 3.2195C1.13976 5.27173 -0.00467057 8.05052 1.43272e-05 10.9458C0.00469922 13.841 1.15812 16.6161 3.20704 18.6617C5.25595 20.7073 8.03289 21.8563 10.9282 21.8563C13.8234 21.8563 16.6004 20.7073 18.6493 18.6617C20.6982 16.6161 21.8516 13.841 21.8563 10.9458C21.861 8.05052 20.7165 5.27173 18.6743 3.2195C16.632 1.16728 13.8588 0.00936978 10.9635 0L10.8928 0Z" fill="var(--fill-0, #7C7C7C)"/>
<path id="Vector_2" d="M24.4026 2.97732e-06C21.5074 0.00937276 18.7342 1.16728 16.6919 3.21951C14.6496 5.27173 13.5052 8.05052 13.5099 10.9458C13.5146 13.841 14.668 16.6161 16.7169 18.6617C18.7658 20.7073 21.5427 21.8563 24.438 21.8563C27.3333 21.8563 30.1102 20.7073 32.1591 18.6617C34.208 16.6161 35.3615 13.841 35.3661 10.9458C35.3708 8.05052 34.2264 5.27173 32.1841 3.21951C30.1418 1.16728 27.3686 0.00937276 24.4734 2.97732e-06L24.4026 2.97732e-06Z" fill="var(--fill-0, #7C7C7C)"/>
<path id="Vector_3" d="M17.6826 2.33447C16.3809 3.35699 15.3284 4.66188 14.6047 6.15064C13.8809 7.6394 13.5049 9.27311 13.5049 10.9285C13.5049 12.5838 13.8809 14.2175 14.6047 15.7063C15.3284 17.195 16.3809 18.4999 17.6826 19.5224C18.9844 18.4999 20.0369 17.195 20.7606 15.7063C21.4843 14.2175 21.8604 12.5838 21.8604 10.9285C21.8604 9.27311 21.4843 7.6394 20.7606 6.15064C20.0369 4.66188 18.9844 3.35699 17.6826 2.33447Z" fill="var(--fill-0, #BBBBBB)"/>
</g>
<defs>
<clipPath id="clip0_3313_12604">
<rect width="35.3662" height="21.8563" fill="white"/>
</clipPath>
</defs>
</svg>
