<svg preserveAspectRatio="none" width="100%" height="100%" overflow="visible" style="display: block;" viewBox="0 0 4 5" fill="none" xmlns="http://www.w3.org/2000/svg">
<g id="g2959">
<path id="path2961" d="M3.50536 3.6345L3.47247 3.7821L3.75242 4.50804C3.68664 4.51526 3.65937 4.51606 3.64573 4.52087C3.57113 4.53691 3.53183 4.54574 3.52541 4.54654C3.4829 4.55456 3.43637 4.55857 3.38424 4.55857C2.92461 4.55857 2.59332 4.35483 2.16578 3.80616L2.31257 4.63076H0.862302L0 0H1.39091C1.58263 1.06364 1.66685 1.66926 1.77995 2.16979C1.96605 3.00562 2.58771 3.38424 3.03129 3.30001C3.08022 3.29039 3.12354 3.28878 3.18771 3.26391L3.27274 3.23183L3.50536 3.6345Z" fill="var(--fill-0, #7C7C7C)"/>
</g>
</svg>
