<svg preserveAspectRatio="none" width="100%" height="100%" overflow="visible" style="display: block;" viewBox="0 0 36 22" fill="none" xmlns="http://www.w3.org/2000/svg">
<g id="Mastercard_2019_logo 1" clip-path="url(#clip0_3313_12451)">
<path id="Vector" d="M10.8928 0C7.99754 0.00936978 5.22433 1.16728 3.18205 3.2195C1.13976 5.27173 -0.00467057 8.05052 1.43272e-05 10.9458C0.00469922 13.841 1.15812 16.6161 3.20704 18.6617C5.25595 20.7073 8.03289 21.8563 10.9282 21.8563C13.8234 21.8563 16.6004 20.7073 18.6493 18.6617C20.6982 16.6161 21.8516 13.841 21.8563 10.9458C21.861 8.05052 20.7165 5.27173 18.6743 3.2195C16.632 1.16728 13.8588 0.00936978 10.9635 0L10.8928 0Z" fill="var(--fill-0, #7C7C7C)"/>
<path id="Vector_2" d="M24.4026 2.97732e-06C21.5074 0.00937276 18.7342 1.16728 16.6919 3.21951C14.6496 5.27173 13.5052 8.05052 13.5099 10.9458C13.5146 13.841 14.668 16.6161 16.7169 18.6617C18.7658 20.7073 21.5427 21.8563 24.438 21.8563C27.3333 21.8563 30.1102 20.7073 32.1591 18.6617C34.208 16.6161 35.3615 13.841 35.3661 10.9458C35.3708 8.05052 34.2264 5.27173 32.1841 3.21951C30.1418 1.16728 27.3686 0.00937276 24.4734 2.97732e-06L24.4026 2.97732e-06Z" fill="var(--fill-0, #7C7C7C)"/>
<path id="Vector_3" d="M17.6831 2.33415C16.3813 3.35667 15.3288 4.66156 14.6051 6.15032C13.8814 7.63907 13.5053 9.27279 13.5053 10.9281C13.5053 12.5835 13.8814 14.2172 14.6051 15.706C15.3288 17.1947 16.3813 18.4996 17.6831 19.5221C18.9848 18.4996 20.0373 17.1947 20.761 15.706C21.4848 14.2172 21.8608 12.5835 21.8608 10.9281C21.8608 9.27279 21.4848 7.63907 20.761 6.15032C20.0373 4.66156 18.9848 3.35667 17.6831 2.33415Z" fill="var(--fill-0, #BBBBBB)"/>
</g>
<defs>
<clipPath id="clip0_3313_12451">
<rect width="35.3662" height="21.8563" fill="white"/>
</clipPath>
</defs>
</svg>
