<svg preserveAspectRatio="none" width="100%" height="100%" overflow="visible" style="display: block;" viewBox="0 0 1 1" fill="none" xmlns="http://www.w3.org/2000/svg">
<g id="g2919">
<path id="path2921" d="M0.31444 0.385028H0.355349C0.369787 0.385028 0.387434 0.384226 0.401071 0.391445C0.413103 0.399467 0.41952 0.413905 0.41952 0.427542C0.41952 0.440376 0.412301 0.454012 0.401071 0.460429C0.388237 0.468451 0.367381 0.466044 0.352942 0.466044H0.31444V0.385028ZM0.31444 0.204546H0.23984V0.523799H0.373798C0.401873 0.523799 0.431552 0.522996 0.455616 0.506954C0.482087 0.490109 0.496526 0.458825 0.496526 0.427542C0.496526 0.391445 0.47567 0.357755 0.441178 0.344921L0.500536 0.204546H0.417916L0.368985 0.330482H0.31444V0.204546ZM0.36337 0.0874335C0.515777 0.0874335 0.640109 0.210963 0.640109 0.36337C0.640109 0.515777 0.515777 0.639307 0.36337 0.639307C0.211765 0.639307 0.0866313 0.515777 0.0866313 0.36337C0.0866313 0.210963 0.211765 0.0874335 0.36337 0.0874335ZM0 0.36337C0 0.564708 0.162033 0.72674 0.36337 0.72674C0.564708 0.72674 0.725938 0.564708 0.725938 0.36337C0.725938 0.163637 0.564708 0 0.36337 0C0.162033 0 0 0.163637 0 0.36337Z" fill="var(--fill-0, #7C7C7C)"/>
</g>
</svg>
