<svg preserveAspectRatio="none" width="100%" height="100%" overflow="visible" style="display: block;" viewBox="0 0 4 5" fill="none" xmlns="http://www.w3.org/2000/svg">
<g id="g2931">
<path id="path2933" d="M0.536633 3.24627C0.536633 2.6607 0.866313 2.25723 1.61471 1.95482C2.18824 1.7214 2.27728 1.65321 2.27728 1.44145C2.27728 1.15268 2.02461 1.02273 1.46471 1.02273C1.04118 1.02273 0.648933 1.08129 0.195723 1.20722L0 0.137166L0.0641714 0.12754L0.323263 0.079412C0.405884 0.0641713 0.529414 0.0513371 0.69305 0.039305C1.02995 0.0128343 1.28984 0 1.47353 0C2.96792 0 3.65857 0.490911 3.65857 1.54733C3.65857 2.18343 3.3706 2.55723 2.6599 2.83798C2.06632 3.07381 1.99814 3.12514 1.99814 3.34172C1.99814 3.59119 2.23316 3.71953 2.69119 3.71953C2.96873 3.71953 3.34814 3.69386 3.7083 3.65055L3.91044 4.72381C3.54386 4.77435 2.98718 4.81526 2.66391 4.81526C1.08048 4.81526 0.53182 4.10215 0.536633 3.24627Z" fill="var(--fill-0, #7C7C7C)"/>
</g>
</svg>
