<svg preserveAspectRatio="none" width="100%" height="100%" overflow="visible" style="display: block;" viewBox="0 0 5 5" fill="none" xmlns="http://www.w3.org/2000/svg">
<g id="g2975">
<path id="path2977" d="M3.0698 2.94787C3.07782 3.04493 3.08103 3.12434 3.08103 3.1845C3.08103 3.56151 2.83557 3.7829 2.41926 3.7829C1.97487 3.7829 1.65482 3.48531 1.52567 2.95108L3.0698 2.94787ZM3.81579 0.189305C3.3345 0.0625671 2.87087 0 2.37995 0C0.815778 0.00240643 0 0.713906 0 2.07755C0 3.6706 1.03797 4.84253 2.44733 4.84253C3.59841 4.84253 4.33477 4.18558 4.33477 3.15643C4.33477 2.81552 4.28504 2.48183 4.16231 2.01177H1.37968C1.36845 1.94038 1.36525 1.90749 1.36525 1.86498C1.36525 1.32835 1.78156 1.05401 2.59413 1.05401C3.09466 1.05401 3.54627 1.14546 4.04841 1.3476L3.81579 0.189305Z" fill="var(--fill-0, white)"/>
</g>
</svg>
