<svg preserveAspectRatio="none" width="100%" height="100%" overflow="visible" style="display: block;" viewBox="0 0 5 5" fill="none" xmlns="http://www.w3.org/2000/svg">
<g id="g2979">
<path id="path2981" d="M3.50135 2.82033C3.50135 3.30563 3.30402 3.76365 2.72969 3.76365C2.01578 3.76365 1.5722 2.91899 1.5722 2.17461C1.5722 1.54573 1.87701 1.1222 2.37755 1.13182C2.67996 1.13182 3.32728 1.54573 3.45563 2.26765C3.48531 2.4353 3.50135 2.6214 3.50135 2.82033ZM4.9428 2.22755C4.73264 0.685029 3.65616 0 2.22354 0C0.639307 0 0 0.961768 0 2.13851C0 3.7821 1.08289 4.89467 2.75616 4.89467C4.20804 4.89467 4.97889 3.97862 4.97889 2.80268C4.97889 2.51632 4.97889 2.49787 4.9428 2.22755Z" fill="var(--fill-0, white)"/>
</g>
</svg>
