<svg preserveAspectRatio="none" width="100%" height="100%" overflow="visible" style="display: block;" viewBox="0 0 5 5" fill="none" xmlns="http://www.w3.org/2000/svg">
<g id="g2939">
<path id="path2941" d="M3.13477 2.94708C3.14279 3.04414 3.146 3.12435 3.146 3.18451C3.146 3.55991 2.90135 3.78291 2.48423 3.78291C2.03824 3.78291 1.72059 3.48531 1.59145 2.95109L3.13477 2.94708ZM3.81418 0.188511C3.3345 0.0609706 2.87087 -0.00079443 2.37995 7.71204e-06C0.814976 0.000809854 0 0.713914 0 2.07675C0 3.66981 1.03717 4.84093 2.44573 4.84093C3.59841 4.84093 4.33397 4.18478 4.33397 3.15563C4.33397 2.81392 4.28344 2.48103 4.16231 2.01178H1.37968C1.36845 1.93959 1.36525 1.9075 1.36525 1.86499C1.36525 1.32675 1.77995 1.05402 2.59332 1.05402C3.09306 1.05402 3.54547 1.14466 4.04681 1.34761L3.81418 0.188511Z" fill="var(--fill-0, #7C7C7C)"/>
</g>
</svg>
