<svg preserveAspectRatio="none" width="100%" height="100%" overflow="visible" style="display: block;" viewBox="0 0 1360 325" fill="none" xmlns="http://www.w3.org/2000/svg">
<g id="Mask group">
<mask id="mask0_3313_12503" style="mask-type:alpha" maskUnits="userSpaceOnUse" x="0" y="0" width="1360" height="325">
<rect id="Rectangle 496" width="1360" height="325" fill="var(--fill-0, #D9D9D9)"/>
</mask>
<g mask="url(#mask0_3313_12503)">
<path id="Vector" fill-rule="evenodd" clip-rule="evenodd" d="M428.578 464.127C417.232 413.937 418.263 418.076 406.401 367.369C383.193 269.577 370.3 262.85 370.815 368.921C370.815 420.146 370.815 411.867 371.331 464.127H326.978C328.525 303.726 328.525 150.052 326.978 0H371.331C370.815 51.7421 370.815 43.9808 370.815 95.2055C370.3 201.277 381.13 194.55 405.37 96.7578C417.748 46.0505 416.716 50.7073 428.578 0H479.12C401.76 266.989 413.622 203.347 481.699 464.127H428.578ZM543.072 0C542.04 154.709 542.04 309.418 543.072 464.127H498.718C499.75 308.383 499.75 153.674 498.718 0H543.072ZM563.185 0C578.142 154.192 591.551 309.418 603.929 464.127H662.723C671.49 349.777 679.742 234.392 687.478 117.972C695.214 234.392 703.466 349.777 712.234 464.127H771.028C783.405 308.901 796.299 154.192 811.771 0H763.292C738.536 387.031 741.115 391.171 717.907 0H657.565C634.357 391.171 636.936 387.031 612.181 0H563.185ZM1013.94 231.805C1013.94 319.249 1021.16 399.967 1031.48 464.127H1162.99C1173.3 399.967 1180.52 319.249 1180.52 231.805C1180.52 144.361 1173.3 63.6428 1162.99 0H1031.48C1021.16 64.1602 1013.94 144.361 1013.94 231.805ZM1136.69 231.805C1136.69 347.707 1114.51 435.151 1097.49 435.151C1079.95 435.151 1058.29 347.707 1058.29 231.805C1058.29 115.902 1080.47 28.4582 1097.49 28.4582C1114.51 28.4582 1136.69 115.902 1136.69 231.805ZM825.18 231.805C825.18 319.249 832.401 399.967 842.715 464.127H973.713C984.027 399.967 991.248 319.249 991.248 231.805C991.248 144.361 984.027 63.6428 973.713 0H842.2C832.401 64.1602 825.18 144.361 825.18 231.805ZM947.41 231.805C947.41 347.707 925.233 435.151 908.214 435.151C890.679 435.151 869.018 347.707 869.018 231.805C869.018 115.902 891.195 28.4582 908.214 28.4582C925.749 28.4582 947.41 115.902 947.41 231.805ZM1315.65 231.805C1315.65 273.198 1303.27 405.141 1267.17 432.047C1258.92 438.256 1249.63 436.186 1249.63 418.594V231.805V45.0156C1249.63 27.4233 1258.4 25.3536 1267.17 31.5627C1303.78 58.4686 1315.65 190.928 1315.65 231.805ZM1207.34 231.805V464.127H1325.45C1347.62 398.414 1360 315.627 1360 231.805C1360 147.982 1347.62 65.1951 1325.45 0H1207.34V231.805ZM195.465 359.608C191.854 394.275 188.244 428.942 184.634 464.127H139.249C157.3 309.935 175.867 155.226 194.949 0H256.837C273.857 155.226 290.36 309.935 306.864 464.127H260.447C257.353 428.942 254.259 394.275 251.164 359.608H195.465ZM210.937 203.347C206.295 244.74 203.201 287.686 201.653 298.552H245.491C244.46 287.686 241.365 245.258 237.755 203.347C225.377 76.0609 224.346 76.0609 210.937 203.347ZM47.4479 0C47.4479 43.4634 51.058 95.7229 58.7941 140.221C71.6875 216.282 85.0967 216.282 97.9901 140.221C105.726 95.7229 109.336 43.4634 109.336 0H156.784C156.268 139.186 117.072 200.759 105.726 303.209C99.5373 358.573 101.6 408.763 101.6 464.127H55.1839C55.1839 408.763 57.2469 358.573 51.058 303.209C39.196 200.242 0.515738 139.186 0 0H47.4479Z" fill="var(--fill-0, white)"/>
</g>
</g>
</svg>
