<svg preserveAspectRatio="none" width="100%" height="100%" overflow="visible" style="display: block;" viewBox="0 0 5 5" fill="none" xmlns="http://www.w3.org/2000/svg">
<g id="g2971">
<path id="path2973" d="M2.86204 2.14653C2.71525 2.16177 2.65028 2.16578 2.54921 2.16578C1.75589 2.16578 1.35402 1.92835 1.35402 1.4607C1.35402 1.17193 1.54974 0.986634 1.85616 0.986634C2.42648 0.986634 2.83878 1.4615 2.86204 2.14653ZM3.88397 0.0802143H2.72006L2.74653 0.561499C2.39279 0.181284 1.92113 0 1.27861 0C0.519788 0 0 0.516579 0 1.26738C0 2.396 0.904816 3.05456 2.45856 3.05456C2.61739 3.05456 2.82033 3.04252 3.02969 3.01846C3.0722 3.17167 3.08343 3.23825 3.08343 3.32087C3.08343 3.62809 2.84038 3.74279 2.18584 3.74279C1.78717 3.74279 1.33396 3.69306 1.02273 3.61365L0.829415 3.56392L0.70428 3.53343L0.897597 4.57702C1.59626 4.75429 2.05669 4.82248 2.57407 4.82248C3.77648 4.82248 4.41258 4.35162 4.41258 3.46285C4.41258 3.23343 4.39092 3.05937 4.29868 2.54359C4.18477 1.73343 3.97622 0.903212 3.88397 0.0802143Z" fill="var(--fill-0, white)"/>
</g>
</svg>
