<svg preserveAspectRatio="none" width="100%" height="100%" overflow="visible" style="display: block;" viewBox="0 0 1 1" fill="none" xmlns="http://www.w3.org/2000/svg">
<g id="g2947">
<path id="path2949" d="M0.313637 0.38583H0.355349C0.37059 0.38583 0.387434 0.384226 0.400269 0.391445C0.412301 0.398664 0.41952 0.413905 0.41952 0.428344C0.41952 0.440376 0.410697 0.454012 0.401071 0.459627C0.388237 0.468451 0.367381 0.466847 0.353745 0.466847H0.313637V0.38583ZM0.313637 0.204546H0.23984V0.522996H0.3746C0.401873 0.522996 0.43075 0.522996 0.456419 0.507756C0.482087 0.490109 0.497328 0.458825 0.497328 0.427542C0.497328 0.391445 0.47567 0.357755 0.441178 0.344921L0.499734 0.204546H0.417114L0.368183 0.32968H0.313637V0.204546ZM0.36337 0.0890377C0.515777 0.0890377 0.638505 0.210963 0.638505 0.36337C0.638505 0.515777 0.515777 0.639307 0.36337 0.639307C0.210963 0.639307 0.0874335 0.515777 0.0874335 0.36337C0.0874335 0.210963 0.210963 0.0890377 0.36337 0.0890377ZM0 0.36337C0 0.564708 0.162033 0.72674 0.36337 0.72674C0.563104 0.72674 0.72674 0.564708 0.72674 0.36337C0.72674 0.162835 0.563104 0 0.36337 0C0.162033 0 0 0.162835 0 0.36337Z" fill="var(--fill-0, white)"/>
</g>
</svg>
