<svg preserveAspectRatio="none" width="100%" height="100%" overflow="visible" style="display: block;" viewBox="0 0 12 14" fill="none" xmlns="http://www.w3.org/2000/svg">
<g id="g261">
<path id="path255" d="M9.89588 3.18862C9.89588 4.90585 8.29802 6.93178 5.88043 6.93178H3.55168L3.43737 7.64714L2.89409 11.0908H0L1.74105 0H6.42993C8.00883 0 9.25102 0.872788 9.70857 2.0857C9.84053 2.43834 9.90408 2.81256 9.89588 3.18862Z" fill="var(--fill-0, #7C7C7C)"/>
<path id="path257" d="M11.564 6.37721C11.2449 8.29988 9.56688 9.70918 7.60225 9.70447H5.98514L5.31201 13.8635H2.43346L2.89411 11.0908L3.43771 7.64712L3.5517 6.93176H5.88046C8.29494 6.93176 9.8959 4.90583 9.8959 3.1886C11.084 3.79674 11.7767 5.02567 11.564 6.37721Z" fill="var(--fill-0, #BBBBBB)"/>
<path id="path259" d="M9.89588 3.18861C9.39764 2.93013 8.79347 2.7727 8.13588 2.7727H4.20959L3.55168 6.93177H5.88044C8.29492 6.93177 9.89588 4.90584 9.89588 3.18861Z" fill="var(--fill-0, #7C7C7C)"/>
</g>
</svg>
