<svg preserveAspectRatio="none" width="100%" height="100%" overflow="visible" style="display: block;" viewBox="0 0 4 5" fill="none" xmlns="http://www.w3.org/2000/svg">
<g id="g2967">
<path id="path2969" d="M0.535029 3.24627C0.535029 2.6607 0.865511 2.25642 1.61471 1.95402C2.18744 1.7214 2.27568 1.65241 2.27568 1.44145C2.27568 1.15348 2.023 1.02353 1.46311 1.02353C1.04038 1.02353 0.647328 1.08048 0.194118 1.20642L0 0.137166L0.0625671 0.126738L0.322461 0.0786099C0.405082 0.0641714 0.529414 0.0521392 0.692248 0.039305C1.02835 0.0128343 1.28904 0 1.47273 0C2.96712 0 3.65696 0.488504 3.65696 1.54733C3.65696 2.18423 3.369 2.55723 2.6599 2.83878C2.06551 3.073 1.99733 3.12514 1.99733 3.34092C1.99733 3.59119 2.23236 3.71953 2.69038 3.71953C2.96792 3.71953 3.34814 3.69306 3.7083 3.65055L3.90964 4.72381C3.54306 4.77355 2.98718 4.81445 2.66391 4.81445C1.07888 4.81445 0.531018 4.10215 0.535029 3.24627Z" fill="var(--fill-0, white)"/>
</g>
</svg>
