<svg preserveAspectRatio="none" width="100%" height="100%" overflow="visible" style="display: block;" viewBox="0 0 5 5" fill="none" xmlns="http://www.w3.org/2000/svg">
<g id="g2935">
<path id="path2937" d="M2.93905 2.14493C2.79226 2.16097 2.72808 2.16498 2.62621 2.16498C1.83289 2.16498 1.43102 1.92674 1.43102 1.4591C1.43102 1.17032 1.62674 0.985832 1.93316 0.985832C2.50429 0.985832 2.91498 1.4599 2.93905 2.14493ZM3.88397 0.0786099H2.72006L2.74814 0.559093C2.39279 0.17968 1.92113 0 1.27861 0C0.521392 0 0 0.515777 0 1.26578C0 2.3952 0.904816 3.05375 2.45856 3.05375C2.61899 3.05375 2.82033 3.04092 3.02969 3.01766C3.073 3.17006 3.08423 3.23664 3.08423 3.31926C3.08423 3.62648 2.84038 3.74039 2.18664 3.74039C1.78717 3.74039 1.33557 3.69146 1.02353 3.61124L0.829414 3.56311L0.70428 3.53263L0.897596 4.57542C1.59626 4.75349 2.05669 4.82167 2.57407 4.82167C3.77648 4.82167 4.41338 4.35082 4.41338 3.46124C4.41338 3.23263 4.39092 3.05776 4.29868 2.54199C4.17916 1.73503 3.98023 0.900003 3.88397 0.0786099Z" fill="var(--fill-0, #7C7C7C)"/>
</g>
</svg>
