<svg preserveAspectRatio="none" width="100%" height="100%" overflow="visible" style="display: block;" viewBox="0 0 358 86" fill="none" xmlns="http://www.w3.org/2000/svg">
<g id="Mask group">
<mask id="mask0_3313_12611" style="mask-type:alpha" maskUnits="userSpaceOnUse" x="0" y="0" width="358" height="86">
<rect id="Rectangle 496" width="358" height="86" fill="var(--fill-0, #D9D9D9)"/>
</mask>
<g mask="url(#mask0_3313_12611)">
<path id="Vector" fill-rule="evenodd" clip-rule="evenodd" d="M112.817 122.815C109.83 109.534 110.102 110.629 106.979 97.2115C100.87 71.3341 97.4759 69.5542 97.6117 97.6223C97.6117 111.177 97.6117 108.986 97.7474 122.815H86.0721C86.4793 80.3707 86.4793 39.7061 86.0721 0H97.7474C97.6117 13.6918 97.6117 11.638 97.6117 25.1928C97.4759 53.261 100.327 51.481 106.708 25.6036C109.966 12.1857 109.694 13.4179 112.817 0H126.121C105.757 70.6495 108.88 53.8086 126.8 122.815H112.817ZM142.956 0C142.684 40.9384 142.684 81.8768 142.956 122.815H131.28C131.552 81.6029 131.552 40.6645 131.28 0H142.956ZM148.25 0C152.187 40.8015 155.717 81.8768 158.975 122.815H174.452C176.76 92.5563 178.932 62.0237 180.969 31.2172C183.005 62.0237 185.177 92.5563 187.485 122.815H202.962C206.22 81.7399 209.614 40.8015 213.687 0H200.925C194.409 102.414 195.088 103.51 188.978 0H173.094C166.985 103.51 167.664 102.414 161.148 0H148.25ZM266.905 61.3391C266.905 84.4782 268.805 105.837 271.521 122.815H306.14C308.855 105.837 310.755 84.4782 310.755 61.3391C310.755 38.2 308.855 16.8409 306.14 0H271.521C268.805 16.9778 266.905 38.2 266.905 61.3391ZM299.216 61.3391C299.216 92.0087 293.378 115.148 288.898 115.148C284.282 115.148 278.58 92.0087 278.58 61.3391C278.58 30.6696 284.418 7.53047 288.898 7.53047C293.378 7.53047 299.216 30.6696 299.216 61.3391ZM217.217 61.3391C217.217 84.4782 219.117 105.837 221.832 122.815H256.316C259.031 105.837 260.931 84.4782 260.931 61.3391C260.931 38.2 259.031 16.8409 256.316 0H221.697C219.117 16.9778 217.217 38.2 217.217 61.3391ZM249.392 61.3391C249.392 92.0087 243.554 115.148 239.074 115.148C234.458 115.148 228.756 92.0087 228.756 61.3391C228.756 30.6696 234.594 7.53047 239.074 7.53047C243.69 7.53047 249.392 30.6696 249.392 61.3391ZM346.325 61.3391C346.325 72.2925 343.066 107.207 333.563 114.326C331.391 115.969 328.947 115.422 328.947 110.766V61.3391V11.9118C328.947 7.25663 331.255 6.70896 333.563 8.35198C343.202 15.4717 346.325 50.5226 346.325 61.3391ZM317.815 61.3391V122.815H348.904C354.742 105.427 358 83.5198 358 61.3391C358 39.1584 354.742 17.2516 348.904 0H317.815V61.3391ZM51.4532 95.1578C50.5028 104.331 49.5525 113.505 48.6022 122.815H36.6553C41.4069 82.0137 46.2943 41.0753 51.3174 0H67.6086C72.0887 41.0753 76.4331 82.0137 80.7774 122.815H68.559C67.7444 113.505 66.9299 104.331 66.1153 95.1578H51.4532ZM55.526 53.8086C54.3041 64.762 53.4896 76.1262 53.0823 79.0015H64.6219C64.3504 76.1262 63.5358 64.899 62.5855 53.8086C59.3273 20.1269 59.0557 20.1269 55.526 53.8086ZM12.49 0C12.49 11.5011 13.4403 25.3298 15.4767 37.1047C18.8707 57.2316 22.4005 57.2316 25.7945 37.1047C27.8309 25.3298 28.7812 11.5011 28.7812 0H41.2711C41.1354 36.8309 30.8176 53.1241 27.8309 80.2337C26.2017 94.8839 26.7448 108.165 26.7448 122.815H14.5264C14.5264 108.165 15.0694 94.8839 13.4403 80.2337C10.3178 52.9871 0.13576 36.8309 0 0H12.49Z" fill="var(--fill-0, white)"/>
</g>
</g>
</svg>
