<svg preserveAspectRatio="none" width="100%" height="100%" overflow="visible" style="display: block;" viewBox="0 0 23 23" fill="none" xmlns="http://www.w3.org/2000/svg">
<g id="g2915">
<path id="path2917" d="M10.9942 22.4937C8.0888 22.4937 5.44012 21.3923 3.4452 19.5827C3.03771 19.2145 2.6583 18.8158 2.30856 18.3915H4.57943C4.88986 18.0145 5.17702 17.6174 5.43692 17.2019H1.45107C1.21284 16.8193 0.995458 16.4214 0.802944 16.0107H6.08424C6.26553 15.6249 6.42515 15.2279 6.56152 14.8188H0.326472C0.197327 14.4313 0.0882356 14.0343 0 13.6284H6.88799C7.05403 12.8607 7.14147 12.0642 7.14147 11.2476C7.14147 9.9987 6.93772 8.79709 6.56152 7.67489H0.326472C0.463638 7.2666 0.622462 6.86874 0.802944 6.48371H6.08424C5.89253 6.07221 5.67595 5.67515 5.43692 5.29173H1.45107C1.71097 4.87622 1.99813 4.47916 2.30856 4.10215H4.57943C4.23049 3.67782 3.85028 3.27915 3.4452 2.91177C5.44012 1.10214 8.0888 0 10.9942 0C17.2059 0 22.241 5.03585 22.241 11.2476C22.241 17.4586 17.2059 22.4937 10.9942 22.4937Z" fill="var(--fill-0, #BBBBBB)"/>
</g>
</svg>
