<svg preserveAspectRatio="none" width="100%" height="100%" overflow="visible" style="display: block;" viewBox="0 0 5 5" fill="none" xmlns="http://www.w3.org/2000/svg">
<g id="g2943">
<path id="path2945" d="M3.5206 2.78183C3.5206 3.26632 3.32408 3.72434 2.74974 3.72434C2.03584 3.72434 1.59305 2.88129 1.59305 2.1353C1.59305 1.50642 1.89626 1.0845 2.3968 1.09412C2.70001 1.09412 3.34653 1.50642 3.47488 2.22835C3.50456 2.396 3.5206 2.58209 3.5206 2.78183ZM4.94199 2.22755C4.73344 0.685029 3.65616 0 2.22354 0C0.640109 0 0 0.961768 0 2.13771C0 3.7821 1.08289 4.89547 2.75616 4.89547C4.20804 4.89547 4.9797 3.97862 4.9797 2.80268C4.9797 2.51712 4.97889 2.49707 4.94199 2.22755Z" fill="var(--fill-0, #7C7C7C)"/>
</g>
</svg>
