<svg preserveAspectRatio="none" width="100%" height="100%" overflow="visible" style="display: block;" viewBox="0 0 53 25" fill="none" xmlns="http://www.w3.org/2000/svg">
<g id="Stripe wordmark - blurple 1">
<path id="Vector" fill-rule="evenodd" clip-rule="evenodd" d="M46.8846 12.7416C46.8846 9.86517 45.4803 7.59551 42.7964 7.59551C40.1011 7.59551 38.4703 9.86517 38.4703 12.7191C38.4703 16.1011 40.3955 17.809 43.1588 17.809C44.5064 17.809 45.5256 17.5056 46.2957 17.0787V14.8315C45.5256 15.2135 44.6423 15.4494 43.5212 15.4494C42.4226 15.4494 41.4487 15.0674 41.3241 13.7416H46.862C46.862 13.5955 46.8846 13.0112 46.8846 12.7416ZM41.2902 11.6742C41.2902 10.4045 42.0716 9.8764 42.785 9.8764C43.4759 9.8764 44.212 10.4045 44.212 11.6742H41.2902ZM34.0989 7.59551C32.9891 7.59551 32.2756 8.11236 31.8793 8.47191L31.7321 7.77528H29.2406V20.8764L32.0718 20.2809L32.0831 17.1011C32.4908 17.3933 33.091 17.809 34.0876 17.809C36.1147 17.809 37.9607 16.191 37.9607 12.6292C37.9494 9.37079 36.0808 7.59551 34.0989 7.59551ZM33.4194 15.3371C32.7513 15.3371 32.3549 15.1011 32.0831 14.809L32.0718 10.6404C32.3662 10.3146 32.7739 10.0899 33.4194 10.0899C34.45 10.0899 35.1635 11.236 35.1635 12.7079C35.1635 14.2135 34.4613 15.3371 33.4194 15.3371ZM25.3449 6.93258L28.1874 6.32584V4.04494L25.3449 4.64045V6.93258ZM25.3449 7.78652H28.1874V17.618H25.3449V7.78652ZM22.2985 8.61798L22.1173 7.78652H19.6712V17.618H22.5024V10.9551C23.1705 10.0899 24.303 10.2472 24.6541 10.3708V7.78652C24.2917 7.65169 22.9667 7.40449 22.2985 8.61798ZM16.6361 5.34831L13.8729 5.93258L13.8615 14.9326C13.8615 16.5955 15.1186 17.8202 16.7947 17.8202C17.7233 17.8202 18.4028 17.6517 18.7765 17.4494V15.1685C18.4141 15.3146 16.6248 15.8315 16.6248 14.1685V10.1798H18.7765V7.78652H16.6248L16.6361 5.34831ZM8.98056 10.6404C8.98056 10.2022 9.34295 10.0337 9.94316 10.0337C10.8038 10.0337 11.891 10.2921 12.7517 10.7528V8.11236C11.8118 7.74157 10.8831 7.59551 9.94316 7.59551C7.64423 7.59551 6.11538 8.78652 6.11538 10.7753C6.11538 13.8764 10.4188 13.382 10.4188 14.7191C10.4188 15.236 9.96581 15.4045 9.33162 15.4045C8.39167 15.4045 7.19124 15.0225 6.23996 14.5056V17.1798C7.29316 17.6292 8.35769 17.8202 9.33162 17.8202C11.6872 17.8202 13.3066 16.6629 13.3066 14.6517C13.2953 11.3034 8.98056 11.8989 8.98056 10.6404Z" fill="var(--fill-0, #7C7C7C)"/>
</g>
</svg>
