<svg preserveAspectRatio="none" width="100%" height="100%" overflow="visible" style="display: block;" viewBox="0 0 42 14" fill="none" xmlns="http://www.w3.org/2000/svg">
<g id="Layer_1-3">
<path id="path523" d="M41.7551 0V10.3283H39.3741V0H41.7551ZM38.4976 3.48576V10.3472H36.3811V9.75574C36.1134 10.0137 35.8074 10.2088 35.4695 10.3472C35.1285 10.4919 34.7587 10.5674 34.3635 10.5674C33.8663 10.5674 33.4041 10.4762 32.9802 10.2937C32.5562 10.1018 32.1865 9.84068 31.8741 9.5135C31.5586 9.18317 31.31 8.79935 31.1251 8.36206C30.9498 7.91533 30.8637 7.43399 30.8637 6.92119C30.8637 6.40839 30.9498 5.93335 31.1251 5.49605C31.31 5.04932 31.5586 4.65922 31.8741 4.32889C32.1857 4.00107 32.5622 3.73982 32.9802 3.56127C33.4041 3.36936 33.8663 3.27183 34.3635 3.27183C34.7587 3.27183 35.1285 3.34419 35.4695 3.49205C35.8106 3.63048 36.1166 3.82553 36.3811 4.0835V3.49205H38.4976V3.48576ZM34.746 8.47846C35.1795 8.47846 35.5333 8.33375 35.8106 8.03802C36.0974 7.74545 36.2409 7.37107 36.2409 6.9149C36.2409 6.45873 36.0974 6.08121 35.8106 5.79178C35.5333 5.4992 35.1763 5.35134 34.746 5.35134C34.3157 5.35134 33.9523 5.49606 33.6655 5.79178C33.3881 6.08436 33.2511 6.45873 33.2511 6.9149C33.2511 7.37107 33.3913 7.74859 33.6655 8.03802C33.9523 8.3306 34.3125 8.47846 34.746 8.47846ZM27.4659 0C28.0939 0 28.6293 0.0880881 29.0724 0.261118C29.5154 0.434147 29.8884 0.67639 30.1944 0.987843C30.5067 1.30874 30.7522 1.67367 30.9275 2.0858C31.1028 2.49792 31.1888 2.94151 31.1888 3.41655C31.1888 3.8916 31.1028 4.33519 30.9275 4.74731C30.7554 5.15564 30.5067 5.52817 30.1944 5.84527C29.8916 6.15672 29.5154 6.39896 29.0724 6.57199C28.6293 6.74502 28.0939 6.83311 27.4659 6.83311H26.3185V10.344H23.896V0H27.4659ZM27.1185 4.70641C27.4436 4.70641 27.6891 4.67495 27.8675 4.60888C28.0524 4.53653 28.2054 4.44215 28.3233 4.33518C28.572 4.10553 28.6963 3.80036 28.6963 3.41655C28.6963 3.03274 28.572 2.72758 28.3233 2.49792C28.2022 2.38781 28.0524 2.29972 27.8675 2.2368C27.6922 2.16444 27.4436 2.12669 27.1185 2.12669H26.3153V4.70641H27.1185ZM14.9713 3.48576H17.6009L19.3858 6.77648H19.4145L21.0051 3.48576H23.4402L18.2224 13.8298H15.8L18.181 9.09822L14.9713 3.48576ZM14.5027 3.48576V10.3472H12.3863V9.75574C12.1185 10.0137 11.8126 10.2088 11.4747 10.3472C11.1336 10.4919 10.7639 10.5674 10.3687 10.5674C9.87142 10.5674 9.40924 10.4762 8.98531 10.2937C8.56139 10.1018 8.19165 9.84068 7.87928 9.5135C7.56691 9.18317 7.31511 8.79935 7.13024 8.36206C6.95493 7.91533 6.86887 7.43399 6.86887 6.92119C6.86887 6.40839 6.95493 5.93335 7.13024 5.49605C7.31511 5.04932 7.56373 4.65922 7.87928 4.32889C8.19031 4.00039 8.5669 3.73903 8.98531 3.56127C9.40924 3.36936 9.87142 3.27183 10.3687 3.27183C10.7639 3.27183 11.1336 3.34419 11.4747 3.49205C11.8157 3.63048 12.1217 3.82553 12.3863 4.0835V3.49205H14.5027V3.48576ZM10.7511 8.47846C11.1846 8.47846 11.5384 8.33375 11.8189 8.03802C12.1058 7.74545 12.2492 7.37107 12.2492 6.9149C12.2492 6.45873 12.1058 6.08121 11.8189 5.79178C11.5416 5.4992 11.1846 5.35134 10.7511 5.35134C10.3177 5.35134 9.95748 5.49606 9.67061 5.79178C9.3933 6.08436 9.25624 6.45873 9.25624 6.9149C9.25624 7.37107 9.39649 7.74859 9.67061 8.03802C9.95748 8.3306 10.3177 8.47846 10.7511 8.47846ZM3.5699 0C4.19782 0 4.73331 0.0880881 5.17636 0.261118C5.61941 0.434147 5.99233 0.67639 6.29833 0.987843C6.61069 1.30874 6.85612 1.67367 7.03143 2.0858C7.20674 2.49792 7.2928 2.94151 7.2928 3.41655C7.2928 3.8916 7.20674 4.33519 7.03143 4.74731C6.85937 5.15564 6.61063 5.52817 6.29833 5.84527C5.99552 6.15672 5.61941 6.39896 5.17636 6.57199C4.73331 6.74502 4.19782 6.83311 3.5699 6.83311H2.42243V10.344H0V0H3.5699ZM3.22566 4.70641C3.55078 4.70641 3.79621 4.67495 3.9747 4.60888C4.15957 4.53653 4.31257 4.44215 4.4305 4.33518C4.67912 4.10553 4.80343 3.80036 4.80343 3.41655C4.80343 3.03274 4.67912 2.72758 4.4305 2.49792C4.30938 2.38781 4.15957 2.29972 3.9747 2.2368C3.79939 2.16444 3.55078 2.12669 3.22566 2.12669H2.42243V4.70641H3.22566Z" fill="var(--fill-0, #7C7C7C)"/>
</g>
</svg>
