<svg width="39" height="28" viewBox="0 0 39 28" fill="none" xmlns="http://www.w3.org/2000/svg">
<g clip-path="url(#clip0_790_6690)">
<path fill-rule="evenodd" clip-rule="evenodd" d="M15.1429 27.2346C14.6854 27.2802 14.226 27.303 13.7662 27.303C10.1152 27.303 6.61371 25.8647 4.03204 23.3046C1.45037 20.7444 0 17.2721 0 13.6515C0 10.0309 1.45037 6.55859 4.03204 3.99844C6.61371 1.43828 10.1152 0 13.7662 0C14.226 -1.3125e-08 14.6854 0.0228383 15.1429 0.068429V4.16388C14.6862 4.10852 14.2262 4.08565 13.7662 4.09545C11.2105 4.09545 8.75946 5.10225 6.9523 6.89436C5.14513 8.68647 4.12987 11.1171 4.12987 13.6515C4.12987 16.1859 5.14513 18.6166 6.9523 20.4087C8.75946 22.2008 11.2105 23.2076 13.7662 23.2076C14.2262 23.2174 14.6862 23.1945 15.1429 23.1391V27.2346Z" fill="#E1E1E1"/>
<path fill-rule="evenodd" clip-rule="evenodd" d="M38.5452 27.2346C38.0878 27.2802 37.6283 27.303 37.1686 27.303C33.5175 27.303 30.016 25.8647 27.4344 23.3046C24.8527 20.7444 23.4023 17.2721 23.4023 13.6515C23.4023 10.0309 24.8527 6.55859 27.4344 3.99844C30.016 1.43828 33.5175 0 37.1686 0C37.6283 -1.3125e-08 38.0878 0.0228383 38.5452 0.068429V4.16388C38.0886 4.10852 37.6285 4.08565 37.1686 4.09545C34.9714 4.09528 32.8402 4.83967 31.1282 6.20525C29.4161 7.57082 28.2261 9.47558 27.7553 11.6038H35.792V15.6992H27.7553C28.2261 17.8274 29.4161 19.7322 31.1282 21.0978C32.8402 22.4634 34.9714 23.2078 37.1686 23.2076C37.6285 23.2174 38.0886 23.1945 38.5452 23.1391V27.2346Z" fill="#E1E1E1"/>
</g>
<defs>
<clipPath id="clip0_790_6690">
<rect width="38.3848" height="27.4177" fill="white"/>
</clipPath>
</defs>
</svg>
