<svg width="41" height="25" viewBox="0 0 41 25" fill="none" xmlns="http://www.w3.org/2000/svg">
<path d="M20.0511 20.8351C22.3212 18.7784 23.7474 15.8056 23.7474 12.4992C23.7474 9.19357 22.3212 6.22163 20.0511 4.16414C18.0538 2.35451 15.4059 1.25317 12.4998 1.25317C6.28958 1.25317 1.25293 6.28821 1.25293 12.4992C1.25293 18.711 6.28958 23.7468 12.4998 23.7468C15.4059 23.7468 18.0538 22.6447 20.0511 20.8351Z" fill="#7C7C7C"/>
<path d="M20.0508 20.835C22.3208 18.7783 23.7471 15.8056 23.7471 12.4992C23.7471 9.19354 22.3208 6.2216 20.0508 4.16411" fill="#7C7C7C"/>
<path d="M20.0508 20.835C22.3208 18.7783 23.7471 15.8056 23.7471 12.4992C23.7471 9.19354 22.3208 6.2216 20.0508 4.16411" stroke="#7C7C7C" stroke-width="0.0802142"/>
<path d="M27.5996 1.25317C24.6943 1.25317 22.0456 2.35451 20.0507 4.16414C19.6432 4.53232 19.2638 4.93099 18.914 5.35532H21.1849C21.4953 5.73233 21.7825 6.12939 22.0424 6.5449H18.0565C17.8183 6.92752 17.6009 7.32538 17.4084 7.73608H22.6897C22.871 8.12191 23.0306 8.51897 23.167 8.92806H16.9319C16.8028 9.31549 16.6937 9.71255 16.6055 10.1184H23.4935C23.6595 10.8861 23.7469 11.6826 23.7469 12.4992C23.7469 13.7481 23.5432 14.9497 23.167 16.0719H16.9319C17.0691 16.4802 17.2279 16.8781 17.4084 17.2631H22.6897C22.498 17.6746 22.2814 18.0717 22.0424 18.4551H18.0565C18.3164 18.8706 18.6036 19.2677 18.914 19.6447H21.1849C20.836 20.069 20.4557 20.4677 20.0507 20.8351C22.0456 22.6447 24.6943 23.7468 27.5996 23.7468C33.8114 23.7468 38.8465 18.711 38.8465 12.4992C38.8465 6.28821 33.8114 1.25317 27.5996 1.25317Z" fill="#BBBBBB"/>
<path d="M37.664 18.7479H37.705C37.7194 18.7479 37.737 18.7487 37.7507 18.7415C37.7627 18.7335 37.7691 18.719 37.7691 18.7054C37.7691 18.6926 37.7619 18.6789 37.7507 18.6725C37.7378 18.6645 37.717 18.6669 37.7026 18.6669H37.664V18.7479ZM37.664 18.9284H37.5894V18.6091H37.7234C37.7515 18.6091 37.7812 18.6099 37.8052 18.626C37.8317 18.6428 37.8461 18.6741 37.8461 18.7054C37.8461 18.7415 37.8253 18.7752 37.7908 18.788L37.8501 18.9284H37.7675L37.7186 18.8025H37.664V18.9284ZM37.713 19.0455C37.8654 19.0455 37.9897 18.922 37.9897 18.7696C37.9897 18.6172 37.8654 18.4936 37.713 18.4936C37.5614 18.4936 37.4362 18.6172 37.4362 18.7696C37.4362 18.922 37.5614 19.0455 37.713 19.0455ZM37.3496 18.7696C37.3496 18.5682 37.5116 18.4062 37.713 18.4062C37.9143 18.4062 38.0755 18.5682 38.0755 18.7696C38.0755 18.9693 37.9143 19.1329 37.713 19.1329C37.5116 19.1329 37.3496 18.9693 37.3496 18.7696Z" fill="#7C7C7C"/>
<path d="M10.7443 15.6292H9.33092L10.1619 11.2454L8.24643 15.6292H7.06407L6.83145 11.2695L5.90497 15.6292H4.61914L5.70444 9.92673H7.92717L7.95204 13.4561L9.49215 9.92673H11.8472L10.7443 15.6292Z" fill="#7C7C7C"/>
<path d="M26.3853 15.5714C26.0019 15.6765 25.7027 15.7222 25.3794 15.7222C24.6631 15.7222 24.2725 15.3629 24.2725 14.7035C24.2725 14.5736 24.2861 14.434 24.3142 14.288L24.3984 13.834L24.4642 13.4666L25.1131 9.92675H26.5056L26.3035 10.9912H27.0174L26.8257 12.119H26.1086L25.7396 14.0538C25.7235 14.138 25.7155 14.2014 25.7155 14.2447C25.7155 14.4845 25.8599 14.5888 26.1928 14.5888C26.3524 14.5888 26.4759 14.5744 26.5706 14.5447L26.3853 15.5714Z" fill="#7C7C7C"/>
<path d="M20.8276 12.4567C20.8276 13.0422 21.1573 13.4457 21.9057 13.7481C22.4793 13.9815 22.5683 14.0497 22.5683 14.2615C22.5683 14.5503 22.3156 14.6802 21.7557 14.6802C21.3322 14.6802 20.9399 14.6217 20.4867 14.4957L20.291 15.5658L20.3552 15.5754L20.6143 15.6235C20.6969 15.6388 20.8204 15.6516 20.9841 15.6636C21.321 15.6901 21.5809 15.7029 21.7645 15.7029C23.2589 15.7029 23.9496 15.212 23.9496 14.1556C23.9496 13.5195 23.6616 13.1457 22.9509 12.865C22.3573 12.6291 22.2892 12.5778 22.2892 12.3612C22.2892 12.1118 22.5242 11.9834 22.9822 11.9834C23.2597 11.9834 23.6392 12.0091 23.9993 12.0524L24.2015 10.9791C23.8349 10.9286 23.2782 10.8877 22.9549 10.8877C21.3715 10.8877 20.8228 11.6008 20.8276 12.4567Z" fill="#7C7C7C"/>
<path d="M14.3297 13.5628C14.1829 13.5468 14.1187 13.5428 14.0168 13.5428C13.2235 13.5428 12.8216 13.781 12.8216 14.2487C12.8216 14.5374 13.0174 14.7219 13.3238 14.7219C13.8949 14.7219 14.3056 14.2479 14.3297 13.5628ZM15.2746 15.6292H14.1107L14.1388 15.1487C13.7834 15.5281 13.3118 15.7078 12.6692 15.7078C11.912 15.7078 11.3906 15.192 11.3906 14.442C11.3906 13.3126 12.2954 12.654 13.8492 12.654C14.0096 12.654 14.211 12.6668 14.4203 12.6901C14.4636 12.5377 14.4749 12.4711 14.4749 12.3885C14.4749 12.0813 14.231 11.9674 13.5773 11.9674C13.1778 11.9674 12.7262 12.0163 12.4142 12.0965L12.22 12.1447L12.0949 12.1751L12.2882 11.1323C12.9869 10.9543 13.4473 10.8861 13.9647 10.8861C15.1671 10.8861 15.804 11.3569 15.804 12.2465C15.804 12.4751 15.7815 12.65 15.6893 13.1658C15.5698 13.9727 15.3709 14.8078 15.2746 15.6292Z" fill="#7C7C7C"/>
<path d="M19.1963 12.7695C19.2043 12.6725 19.2075 12.5923 19.2075 12.5321C19.2075 12.1567 18.9629 11.9337 18.5458 11.9337C18.0998 11.9337 17.7821 12.2313 17.653 12.7655L19.1963 12.7695ZM19.8757 15.5281C19.396 15.6556 18.9324 15.7174 18.4415 15.7166C16.8765 15.7158 16.0615 15.0027 16.0615 13.6399C16.0615 12.0468 17.0987 10.8757 18.5073 10.8757C19.6599 10.8757 20.3955 11.5318 20.3955 12.561C20.3955 12.9027 20.345 13.2356 20.2238 13.7048H17.4412C17.43 13.777 17.4268 13.8091 17.4268 13.8516C17.4268 14.3899 17.8415 14.6626 18.6548 14.6626C19.1546 14.6626 19.607 14.5719 20.1083 14.369L19.8757 15.5281Z" fill="#7C7C7C"/>
<path d="M33.3946 12.9717C33.3946 12.4872 33.1981 12.0291 32.6238 12.0291C31.9099 12.0291 31.4671 12.8722 31.4671 13.6182C31.4671 14.2471 31.7703 14.669 32.2708 14.6594C32.574 14.6594 33.2206 14.2471 33.3489 13.5251C33.3786 13.3575 33.3946 13.1714 33.3946 12.9717ZM34.816 13.5259C34.6075 15.0685 33.5302 15.7535 32.0976 15.7535C30.5141 15.7535 29.874 14.7917 29.874 13.6158C29.874 11.9714 30.9569 10.858 32.6302 10.858C34.0821 10.858 34.8537 11.7749 34.8537 12.9508C34.8537 13.2364 34.8529 13.2564 34.816 13.5259Z" fill="#7C7C7C"/>
<path d="M35.2843 14.9153H35.3261C35.3413 14.9153 35.3581 14.9169 35.371 14.9096C35.383 14.9024 35.3902 14.8872 35.3902 14.8727C35.3902 14.8607 35.3814 14.8471 35.3718 14.8415C35.3589 14.8326 35.3381 14.8342 35.3244 14.8342H35.2843V14.9153ZM35.2843 15.0965H35.2105V14.7781H35.3453C35.3726 14.7781 35.4015 14.7781 35.4271 14.7933C35.4528 14.811 35.468 14.8423 35.468 14.8735C35.468 14.9096 35.4464 14.9433 35.4119 14.9562L35.4704 15.0965H35.3878L35.3389 14.9714H35.2843V15.0965ZM35.3341 15.212C35.4865 15.212 35.6092 15.0901 35.6092 14.9377C35.6092 14.7853 35.4865 14.6618 35.3341 14.6618C35.1817 14.6618 35.0581 14.7853 35.0581 14.9377C35.0581 15.0901 35.1817 15.212 35.3341 15.212ZM34.9707 14.9377C34.9707 14.7364 35.1327 14.5743 35.3341 14.5743C35.5338 14.5743 35.6974 14.7364 35.6974 14.9377C35.6974 15.1383 35.5338 15.3011 35.3341 15.3011C35.1327 15.3011 34.9707 15.1383 34.9707 14.9377Z" fill="white"/>
<path d="M11.095 15.3011H9.69521L10.5278 10.9174L8.61152 15.3011H7.33531L7.10189 10.9414L6.26686 15.3011H4.99707L6.08237 9.59866H8.2666L8.38211 13.1289L9.92302 9.59866H12.1987L11.095 15.3011Z" fill="white"/>
<path d="M26.7388 15.2434C26.3562 15.3492 26.0562 15.3942 25.7337 15.3942C25.0166 15.3942 24.626 15.0348 24.626 14.3754C24.626 14.2447 24.6404 14.1067 24.6669 13.9591L24.7519 13.5059L24.8185 13.1385L25.4666 9.59789H26.8591L26.657 10.6639H27.3717L27.18 11.7901H26.4613L26.0931 13.7249C26.0771 13.8107 26.0698 13.8741 26.0698 13.9166C26.0698 14.1565 26.2134 14.2615 26.5471 14.2615C26.7059 14.2615 26.8303 14.2463 26.9241 14.2166L26.7388 15.2434Z" fill="white"/>
<path d="M30.3364 11.9946L30.3035 11.8471L30.5835 11.1211C30.5177 11.1139 30.4904 11.1131 30.4768 11.1083C30.4022 11.0922 30.3629 11.0834 30.3565 11.0826C30.314 11.0746 30.2674 11.0706 30.2153 11.0706C29.7557 11.0706 29.4244 11.2743 28.9968 11.823L29.1436 10.9984H27.6934L26.8311 15.6292H28.222C28.4137 14.5655 28.4979 13.9599 28.611 13.4594C28.7971 12.6235 29.4188 12.2449 29.8623 12.3291C29.9113 12.3388 29.9546 12.3404 30.0188 12.3652L30.1038 12.3973L30.3364 11.9946Z" fill="#7C7C7C"/>
<path d="M30.8273 10.7016C30.7094 10.6559 30.683 10.6559 30.6685 10.6511C30.5939 10.635 30.5554 10.6254 30.5482 10.6246C30.5057 10.6166 30.4592 10.6118 30.407 10.6118C29.9474 10.6118 29.6161 10.8171 29.1886 11.3658L29.3121 10.6639H28.0439L27.1904 15.3011H28.591C29.0923 12.4647 29.3073 11.9674 29.9795 11.9674C30.0292 11.9674 30.0878 11.9714 30.1567 11.9786L30.3196 12.0131L30.8273 10.7016Z" fill="white"/>
<path d="M21.1893 12.1286C21.1893 12.7142 21.5198 13.1185 22.269 13.4209C22.8417 13.6535 22.93 13.7225 22.93 13.9334C22.93 14.2214 22.6773 14.3513 22.1174 14.3513C21.6947 14.3513 21.3016 14.2944 20.8484 14.1685L20.6543 15.2377L20.7169 15.2481L20.9768 15.2963C21.0594 15.3107 21.1837 15.3227 21.3465 15.3356C21.6826 15.362 21.9433 15.3749 22.127 15.3749C23.6214 15.3749 24.3113 14.8864 24.3113 13.8275C24.3113 13.1906 24.0233 12.8177 23.3142 12.5361C22.7198 12.3019 22.6516 12.2497 22.6516 12.034C22.6516 11.7837 22.8867 11.6553 23.3447 11.6553C23.6222 11.6553 24.0024 11.6818 24.3626 11.7243L24.5639 10.6511C24.1974 10.6013 23.6415 10.5604 23.3182 10.5604C21.7332 10.5604 21.1853 11.2727 21.1893 12.1286Z" fill="white"/>
<path d="M14.6247 13.2348C14.4779 13.2195 14.413 13.2155 14.3119 13.2155C13.5186 13.2155 13.1167 13.4529 13.1167 13.9206C13.1167 14.2094 13.3124 14.3947 13.6189 14.3947C14.1892 14.3947 14.6015 13.9198 14.6247 13.2348ZM15.6467 15.3011H14.4828L14.5092 14.8198C14.1555 15.2 13.6838 15.3813 13.0413 15.3813C12.2825 15.3813 11.7627 14.8647 11.7627 14.1139C11.7627 12.9853 12.6675 12.3267 14.2213 12.3267C14.3801 12.3267 14.583 12.3388 14.7924 12.3628C14.8349 12.2096 14.8461 12.143 14.8461 12.0604C14.8461 11.7532 14.6031 11.6385 13.9485 11.6385C13.5499 11.6385 13.0967 11.6882 12.7854 11.7676L12.5921 11.8174L12.467 11.8479L12.6603 10.8043C13.359 10.627 13.8194 10.5588 14.3368 10.5588C15.5392 10.5588 16.1753 11.0297 16.1753 11.9184C16.1753 12.1479 16.1536 12.3219 16.0614 12.8377C15.9475 13.6479 15.7389 14.4781 15.6467 15.3011Z" fill="white"/>
<path d="M19.4926 12.4414C19.5007 12.3444 19.5039 12.2649 19.5039 12.2048C19.5039 11.8278 19.2584 11.6064 18.8421 11.6064C18.3977 11.6064 18.0777 11.904 17.9485 12.4382L19.4926 12.4414ZM20.2386 15.2C19.7574 15.3267 19.2937 15.3893 18.8028 15.3893C17.2386 15.3869 16.4229 14.6754 16.4229 13.3117C16.4229 11.7187 17.4608 10.5468 18.8702 10.5468C20.0213 10.5468 20.7576 11.2037 20.7576 12.2329C20.7576 12.5738 20.7079 12.9075 20.5852 13.3775H17.8025C17.7913 13.4489 17.7881 13.4818 17.7881 13.5243C17.7881 14.0609 18.2044 14.3353 19.017 14.3353C19.5175 14.3353 19.9691 14.2438 20.4713 14.0417L20.2386 15.2Z" fill="white"/>
<path d="M33.7377 12.6051C33.7377 12.1198 33.5403 11.6618 32.966 11.6618C32.2521 11.6618 31.8085 12.5064 31.8085 13.2508C31.8085 13.8797 32.1133 14.3032 32.6139 14.2936C32.9163 14.2936 33.5636 13.8797 33.692 13.1578C33.7216 12.9901 33.7377 12.804 33.7377 12.6051ZM35.1791 13.1979C34.969 14.7404 33.8925 15.4254 32.4599 15.4254C30.8756 15.4254 30.2363 14.4636 30.2363 13.2869C30.2363 11.6433 31.3192 10.5307 32.9925 10.5307C34.4444 10.5307 35.2152 11.4468 35.2152 12.6227C35.2152 12.9091 35.2152 12.9275 35.1791 13.1979Z" fill="white"/>
</svg>
