<svg width="36" height="22" viewBox="0 0 36 22" fill="none" xmlns="http://www.w3.org/2000/svg">
<g clip-path="url(#clip0_790_6703)">
<path d="M10.8928 0C7.99754 0.00936978 5.22433 1.16728 3.18205 3.2195C1.13976 5.27173 -0.00467057 8.05052 1.43272e-05 10.9458C0.00469922 13.841 1.15812 16.6161 3.20704 18.6617C5.25595 20.7073 8.03289 21.8563 10.9282 21.8563C13.8234 21.8563 16.6004 20.7073 18.6493 18.6617C20.6982 16.6161 21.8516 13.841 21.8563 10.9458C21.861 8.05052 20.7165 5.27173 18.6743 3.2195C16.632 1.16728 13.8588 0.00936978 10.9635 0L10.8928 0Z" fill="#7C7C7C"/>
<path d="M24.4026 0C21.5073 0.00936978 18.7341 1.16728 16.6918 3.2195C14.6495 5.27173 13.5051 8.05052 13.5098 10.9458C13.5145 13.841 14.6679 16.6161 16.7168 18.6617C18.7657 20.7073 21.5427 21.8563 24.4379 21.8563C27.3332 21.8563 30.1101 20.7073 32.159 18.6617C34.208 16.6161 35.3614 13.841 35.3661 10.9458C35.3707 8.05052 34.2263 5.27173 32.184 3.2195C30.1417 1.16728 27.3685 0.00936978 24.4733 0L24.4026 0Z" fill="#535353"/>
<path d="M17.6826 2.33417C16.3809 3.35669 15.3284 4.66158 14.6047 6.15033C13.8809 7.63909 13.5049 9.27281 13.5049 10.9282C13.5049 12.5835 13.8809 14.2172 14.6047 15.706C15.3284 17.1947 16.3809 18.4996 17.6826 19.5221C18.9844 18.4996 20.0369 17.1947 20.7606 15.706C21.4843 14.2172 21.8604 12.5835 21.8604 10.9282C21.8604 9.27281 21.4843 7.63909 20.7606 6.15033C20.0369 4.66158 18.9844 3.35669 17.6826 2.33417Z" fill="#BBBBBB"/>
</g>
<defs>
<clipPath id="clip0_790_6703">
<rect width="35.3662" height="21.8563" fill="white"/>
</clipPath>
</defs>
</svg>
