<svg width="57" height="14" viewBox="0 0 57 14" fill="none" xmlns="http://www.w3.org/2000/svg">
<g clip-path="url(#clip0_790_6754)">
<path d="M9.89588 3.18862C9.89588 4.90585 8.29803 6.93178 5.88043 6.93178H3.55168L3.43737 7.64714L2.89409 11.0908H0L1.74105 0H6.42993C8.00883 0 9.25102 0.872788 9.70857 2.0857C9.84053 2.43834 9.90408 2.81256 9.89588 3.18862Z" fill="#7C7C7C"/>
<path d="M11.5638 6.37722C11.2448 8.29988 9.56677 9.70918 7.60214 9.70447H5.98503L5.31191 13.8635H2.43335L2.89401 11.0908L3.4376 7.64712L3.5516 6.93176H5.88035C8.29484 6.93176 9.89579 4.90583 9.89579 3.1886C11.0839 3.79675 11.7766 5.02567 11.5638 6.37722Z" fill="#BBBBBB"/>
<path d="M9.89595 3.18861C9.39771 2.93013 8.79355 2.77271 8.13596 2.77271H4.20966L3.55176 6.93177H5.88051C8.295 6.93177 9.89595 4.90584 9.89595 3.18861Z" fill="#7C7C7C"/>
<path d="M56.594 0.0337524V10.3621H54.213V0.0337524H56.594ZM53.3364 3.51952V10.3809H51.22V9.78949C50.9523 10.0475 50.6463 10.2425 50.3084 10.3809C49.9673 10.5257 49.5976 10.6012 49.2024 10.6012C48.7051 10.6012 48.243 10.5099 47.819 10.3275C47.3951 10.1355 47.0254 9.87443 46.713 9.54725C46.3974 9.21692 46.1488 8.83311 45.9639 8.39581C45.7886 7.94908 45.7026 7.46774 45.7026 6.95494C45.7026 6.44215 45.7886 5.9671 45.9639 5.52981C46.1488 5.08307 46.3974 4.69297 46.713 4.36264C47.0246 4.03482 47.4011 3.77357 47.819 3.59502C48.243 3.40311 48.7051 3.30558 49.2024 3.30558C49.5976 3.30558 49.9673 3.37794 50.3084 3.52581C50.6494 3.66423 50.9554 3.85928 51.22 4.11725V3.52581H53.3364V3.51952ZM49.5848 8.51222C50.0183 8.51222 50.3721 8.3675 50.6494 8.07178C50.9363 7.7792 51.0797 7.40483 51.0797 6.94866C51.0797 6.49249 50.9363 6.11497 50.6494 5.82553C50.3721 5.53296 50.0151 5.38509 49.5848 5.38509C49.1546 5.38509 48.7912 5.52981 48.5043 5.82553C48.227 6.11811 48.09 6.49249 48.09 6.94866C48.09 7.40483 48.2302 7.78235 48.5043 8.07178C48.7912 8.36436 49.1514 8.51222 49.5848 8.51222ZM42.3048 0.0337524C42.9327 0.0337524 43.4682 0.12184 43.9113 0.29487C44.3543 0.4679 44.7272 0.710142 45.0332 1.0216C45.3456 1.34249 45.591 1.70742 45.7663 2.11955C45.9416 2.53168 46.0277 2.97526 46.0277 3.45031C46.0277 3.92535 45.9416 4.36894 45.7663 4.78107C45.5943 5.18939 45.3455 5.56192 45.0332 5.87902C44.7304 6.19047 44.3543 6.43271 43.9113 6.60574C43.4682 6.77877 42.9327 6.86686 42.3048 6.86686H41.1573V10.3778H38.7349V0.0337524H42.3048ZM41.9574 4.74016C42.2825 4.74016 42.5279 4.7087 42.7064 4.64264C42.8913 4.57028 43.0443 4.4759 43.1622 4.36894C43.4108 4.13928 43.5351 3.83412 43.5351 3.4503C43.5351 3.06649 43.4108 2.76133 43.1622 2.53167C43.0411 2.42156 42.8913 2.33347 42.7064 2.27055C42.5311 2.1982 42.2825 2.16044 41.9574 2.16044H41.1541V4.74016H41.9574ZM29.8101 3.51952H32.4398L34.2247 6.81023H34.2534L35.8439 3.51952H38.2791L33.0613 13.8636H30.6389L33.0199 9.13198L29.8101 3.51952ZM29.3416 3.51952V10.3809H27.2252V9.78949C26.9574 10.0475 26.6514 10.2425 26.3136 10.3809C25.9725 10.5257 25.6028 10.6012 25.2075 10.6012C24.7103 10.6012 24.2481 10.5099 23.8242 10.3275C23.4003 10.1355 23.0305 9.87443 22.7181 9.54725C22.4058 9.21692 22.154 8.83311 21.9691 8.39581C21.7938 7.94908 21.7077 7.46774 21.7077 6.95494C21.7077 6.44215 21.7938 5.9671 21.9691 5.52981C22.154 5.08307 22.4026 4.69297 22.7181 4.36264C23.0292 4.03414 23.4058 3.77278 23.8242 3.59502C24.2481 3.40311 24.7103 3.30558 25.2075 3.30558C25.6028 3.30558 25.9725 3.37794 26.3136 3.52581C26.6546 3.66423 26.9606 3.85928 27.2252 4.11725V3.52581H29.3416V3.51952ZM25.59 8.51222C26.0235 8.51222 26.3773 8.3675 26.6578 8.07178C26.9447 7.7792 27.0881 7.40483 27.0881 6.94866C27.0881 6.49249 26.9447 6.11497 26.6578 5.82553C26.3805 5.53296 26.0235 5.38509 25.59 5.38509C25.1565 5.38509 24.7963 5.52981 24.5095 5.82553C24.2322 6.11811 24.0951 6.49249 24.0951 6.94866C24.0951 7.40483 24.2354 7.78235 24.5095 8.07178C24.7963 8.36436 25.1565 8.51222 25.59 8.51222ZM18.4088 0.0337524C19.0367 0.0337524 19.5722 0.12184 20.0152 0.29487C20.4583 0.4679 20.8312 0.710142 21.1372 1.0216C21.4496 1.34249 21.695 1.70742 21.8703 2.11955C22.0456 2.53168 22.1317 2.97526 22.1317 3.45031C22.1317 3.92535 22.0456 4.36894 21.8703 4.78107C21.6982 5.18939 21.4495 5.56192 21.1372 5.87902C20.8344 6.19047 20.4583 6.43271 20.0152 6.60574C19.5722 6.77877 19.0367 6.86686 18.4088 6.86686H17.2613V10.3778H14.8389V0.0337524H18.4088ZM18.0645 4.74016C18.3896 4.74016 18.6351 4.7087 18.8136 4.64264C18.9984 4.57028 19.1514 4.4759 19.2694 4.36894C19.518 4.13928 19.6423 3.83412 19.6423 3.4503C19.6423 3.06649 19.518 2.76133 19.2694 2.53167C19.1482 2.42156 18.9984 2.33347 18.8136 2.27055C18.6383 2.1982 18.3896 2.16044 18.0645 2.16044H17.2613V4.74016H18.0645Z" fill="#7C7C7C"/>
</g>
<defs>
<clipPath id="clip0_790_6754">
<rect width="56.5938" height="13.8635" fill="white"/>
</clipPath>
</defs>
</svg>
