<svg width="53" height="25" viewBox="0 0 53 25" fill="none" xmlns="http://www.w3.org/2000/svg">
<path fill-rule="evenodd" clip-rule="evenodd" d="M46.8845 12.7416C46.8845 9.86515 45.4802 7.59548 42.7962 7.59548C40.1009 7.59548 38.4701 9.86515 38.4701 12.7191C38.4701 16.1011 40.3954 17.809 43.1586 17.809C44.5063 17.809 45.5255 17.5056 46.2956 17.0786V14.8314C45.5255 15.2135 44.6422 15.4494 43.521 15.4494C42.4225 15.4494 41.4486 15.0674 41.324 13.7416H46.8618C46.8618 13.5955 46.8845 13.0112 46.8845 12.7416ZM41.29 11.6741C41.29 10.4045 42.0714 9.87638 42.7849 9.87638C43.4757 9.87638 44.2118 10.4045 44.2118 11.6741H41.29ZM34.0988 7.59548C32.989 7.59548 32.2755 8.11234 31.8791 8.47189L31.7319 7.77526H29.2404V20.8764L32.0716 20.2809L32.083 17.1011C32.4907 17.3932 33.0909 17.809 34.0875 17.809C36.1146 17.809 37.9605 16.191 37.9605 12.6292C37.9492 9.37076 36.0806 7.59548 34.0988 7.59548ZM33.4193 15.3371C32.7511 15.3371 32.3548 15.1011 32.083 14.809L32.0716 10.6404C32.3661 10.3146 32.7738 10.0899 33.4193 10.0899C34.4499 10.0899 35.1633 11.2359 35.1633 12.7078C35.1633 14.2135 34.4612 15.3371 33.4193 15.3371ZM25.3447 6.93256L28.1872 6.32582V4.04492L25.3447 4.64043V6.93256ZM25.3447 7.7865H28.1872V17.618H25.3447V7.7865ZM22.2984 8.61796L22.1172 7.7865H19.671V17.618H22.5022V10.955C23.1704 10.0899 24.3028 10.2472 24.6539 10.3708V7.7865C24.2915 7.65166 22.9665 7.40447 22.2984 8.61796ZM16.636 5.34829L13.8727 5.93256L13.8614 14.9326C13.8614 16.5955 15.1184 17.8202 16.7945 17.8202C17.7231 17.8202 18.4026 17.6517 18.7763 17.4494V15.1685C18.414 15.3146 16.6246 15.8314 16.6246 14.1685V10.1798H18.7763V7.7865H16.6246L16.636 5.34829ZM8.98041 10.6404C8.98041 10.2022 9.3428 10.0337 9.94301 10.0337C10.8037 10.0337 11.8909 10.2921 12.7516 10.7528V8.11234C11.8116 7.74155 10.883 7.59548 9.94301 7.59548C7.64408 7.59548 6.11523 8.7865 6.11523 10.7753C6.11523 13.8764 10.4187 13.382 10.4187 14.7191C10.4187 15.2359 9.96566 15.4045 9.33147 15.4045C8.39152 15.4045 7.19109 15.0225 6.23981 14.5056V17.1798C7.29301 17.6292 8.35754 17.8202 9.33147 17.8202C11.687 17.8202 13.3065 16.6629 13.3065 14.6517C13.2951 11.3033 8.98041 11.8989 8.98041 10.6404Z" fill="#7C7C7C"/>
</svg>
