<svg width="36" height="12" viewBox="0 0 36 12" fill="none" xmlns="http://www.w3.org/2000/svg">
<g clip-path="url(#clip0_790_6707)">
<path d="M23.03 0.0177002C20.5215 0.0177002 18.2796 1.31812 18.2796 3.72019C18.2796 6.47521 22.2555 6.66548 22.2555 8.04972C22.2555 8.63255 21.5878 9.1542 20.4469 9.1542C18.8282 9.1542 17.6183 8.42531 17.6183 8.42531L17.1005 10.8497C17.1005 10.8497 18.4943 11.4654 20.3447 11.4654C23.0873 11.4654 25.2457 10.1013 25.2457 7.65786C25.2457 4.74651 21.2532 4.5619 21.2532 3.2774C21.2532 2.82082 21.8014 2.32075 22.9388 2.32075C24.2222 2.32075 25.269 2.85089 25.269 2.85089L25.7758 0.509644C25.7758 0.509644 24.6363 0.0177002 23.0297 0.0177002H23.03ZM0.078408 0.194531L0.0175781 0.547839C0.0175781 0.547839 1.07291 0.740939 2.02355 1.12643C3.24757 1.56815 3.33457 1.82562 3.54076 2.62419L5.78687 11.2829H8.79794L13.4366 0.194531H10.4326L7.45191 7.73354L6.23566 1.34287C6.12426 0.611499 5.55911 0.194177 4.8677 0.194177H0.0787616L0.078408 0.194531ZM14.6447 0.194531L12.2882 11.2829H15.1529L17.5009 0.194531H14.6447ZM30.6217 0.194531C29.931 0.194531 29.565 0.564461 29.2965 1.2106L25.0996 11.2829H28.1036L28.6847 9.60406H32.3444L32.6977 11.2829H35.3484L33.0362 0.194531H30.6217ZM31.0125 3.1904L31.903 7.35123H29.5176L31.0129 3.1904H31.0125Z" fill="#7C7C7C"/>
</g>
<defs>
<clipPath id="clip0_790_6707">
<rect width="35.3662" height="11.4827" fill="white"/>
</clipPath>
</defs>
</svg>
